<svg width="24" height="24" viewBox="0 0 24 24" fill="none" xmlns="http://www.w3.org/2000/svg">
<path d="M4 8.80058L4 8.8004C3.99982 7.78445 4.41315 6.80845 5.15126 6.09274C5.88982 5.3766 6.89158 4.98163 7.93171 5.00066L7.94348 5.00087L7.95524 5.00081C9.21863 4.99418 10.421 5.52347 11.2583 6.44927L12 7.26935L12.7417 6.44927C13.579 5.52347 14.7814 4.99418 16.0448 5.00081L16.0565 5.00087L16.0683 5.00066C17.1084 4.98163 18.1102 5.3766 18.8487 6.09274C19.5869 6.80845 20.0002 7.78446 20 8.8004V8.80058C20 10.7696 18.8081 12.6123 17.0137 14.4131C16.1302 15.2998 15.1397 16.1381 14.1497 16.9441C13.8714 17.1708 13.5907 17.3967 13.3123 17.6207C12.8634 17.9821 12.4204 18.3386 12.003 18.6855C11.5611 18.3155 11.0907 17.9357 10.6146 17.5512C10.3615 17.3469 10.1068 17.1412 9.85384 16.9349C8.86331 16.1274 7.87243 15.2899 6.98815 14.4046C5.19253 12.6068 4 10.7703 4 8.80058Z" stroke="#7EAF72" stroke-width="2"/>
</svg>
