<svg width="25" height="26" viewBox="0 0 25 26" fill="none" xmlns="http://www.w3.org/2000/svg">
<g id="Frame 1">
<path id="M" d="M20.5 15.8096C20.5 16.7432 19.7432 17.5 18.8096 17.5C17.8761 17.5 17.1193 16.7432 17.1193 15.8096V7.79021C17.1193 7.30108 16.4894 7.10291 16.2094 7.5039L12.097 13.3917C11.7229 13.9274 11.1107 14.2465 10.4574 14.2465H9.74041C9.09337 14.2465 8.4863 13.9335 8.11107 13.4064L3.90734 7.50098C3.62501 7.10437 3 7.30411 3 7.79094V16C3 16.8284 2.32843 17.5 1.5 17.5C0.671573 17.5 0 16.8284 0 16V2.5C0 1.39543 0.895431 0.5 2 0.5H3.02149C3.63887 0.5 4.22164 0.785122 4.60053 1.27255L9.98051 8.19357L15.3994 1.26758C15.7785 0.783092 16.3594 0.5 16.9746 0.5H18.5C19.6046 0.5 20.5 1.39543 20.5 2.5V15.8096Z" fill="#589727"/>
<rect id="Rectangle 1" x="21.5" y="0.5" width="3" height="17" rx="1.5" fill="#ABD356"/>
<path id="Ellipse 1" d="M23 16C23 20.4183 18.1871 24 12.25 24C6.31294 24 1.5 20.4183 1.5 16" stroke="url(#paint0_linear_3_17)" stroke-width="3" stroke-linecap="round"/>
<circle id="Ellipse 2" cx="7" cy="16.5" r="1" fill="#589727"/>
<circle id="Ellipse 3" cx="13" cy="16.5" r="1" fill="#589727"/>
</g>
<defs>
<linearGradient id="paint0_linear_3_17" x1="1.5" y1="19.5" x2="22" y2="19.5" gradientUnits="userSpaceOnUse">
<stop stop-color="#589727"/>
<stop offset="1" stop-color="#ABD356"/>
</linearGradient>
</defs>
</svg>
