<svg width="103" height="12" viewBox="0 0 103 12" fill="none" xmlns="http://www.w3.org/2000/svg">
<path id="Vector" d="M5.93369 2.91429C5.89717 2.54033 5.72915 2.24792 5.42971 2.03633C5.14488 1.82473 4.76515 1.71893 4.29043 1.71893C3.96178 1.71893 3.66961 1.76818 3.42859 1.86516C3.18028 1.96288 2.99768 2.09954 2.86622 2.27439C2.74206 2.44925 2.67633 2.64834 2.67633 2.87169C2.67633 3.20524 2.81514 3.46531 3.09267 3.65266C3.3702 3.8356 3.73536 3.97959 4.18086 4.08539L5.00615 4.30507C5.75839 4.47993 6.3719 4.77014 6.85392 5.17716C7.33594 5.57977 7.56964 6.13446 7.56964 6.84197C7.56964 7.35846 7.43815 7.81324 7.17523 8.20777C6.91961 8.6023 6.53258 8.90938 6.03595 9.12906C5.53932 9.34432 4.9404 9.45232 4.25388 9.45232C3.57467 9.45232 2.98313 9.34652 2.4719 9.13493C1.97527 8.91966 1.5809 8.60672 1.29607 8.19602C1.01854 7.78533 0.865172 7.29306 0.843262 6.72H2.39888C2.4354 7.16302 2.6179 7.50244 2.95386 7.73828C3.28981 7.97411 3.72072 8.09391 4.23926 8.09831C4.58252 8.09831 4.88195 8.04541 5.14487 7.93962C5.41509 7.83015 5.61967 7.67953 5.77304 7.4885C5.9191 7.29748 5.9994 7.07779 5.9994 6.82946C5.99209 6.50472 5.8606 6.252 5.59767 6.07347C5.33475 5.89053 4.94046 5.73185 4.40731 5.59814L3.41397 5.34173C1.85105 4.93104 1.07693 4.1383 1.07693 2.96353C1.07693 2.45071 1.21566 1.9996 1.49318 1.60947C1.77071 1.21494 2.15785 0.910048 2.64717 0.694783C3.1365 0.47511 3.68426 0.364924 4.29774 0.364924C4.91122 0.364924 5.45166 0.472926 5.92638 0.688191C6.4011 0.904191 6.77358 1.20688 7.03651 1.59701C7.30673 1.98346 7.44546 2.42278 7.45276 2.91429H5.93369ZM8.65052 2.69461H10.1988V9.31789H8.65052V2.69461ZM9.43925 1.75566C9.27858 1.75566 9.12521 1.71675 8.98645 1.63961C8.84768 1.56246 8.74547 1.45885 8.65783 1.32881C8.5775 1.19877 8.54095 1.05624 8.54095 0.901954C8.54095 0.751342 8.5775 0.611017 8.65783 0.480976C8.74547 0.350935 8.84768 0.249563 8.98645 0.176094C9.12521 0.098951 9.27858 0.0599976 9.43925 0.0599976C9.59993 0.0599976 9.74607 0.098951 9.88484 0.176094C10.0236 0.249563 10.1331 0.350935 10.2135 0.480976C10.2938 0.611017 10.3376 0.751342 10.3376 0.901954C10.3376 1.05624 10.2938 1.19877 10.2135 1.32881C10.1331 1.45885 10.0236 1.56246 9.88484 1.63961C9.74607 1.71675 9.59993 1.75566 9.43925 1.75566ZM14.391 11.94C13.814 11.94 13.3101 11.857 12.8792 11.6902C12.4483 11.5278 12.105 11.2935 11.8494 10.9886C11.6084 10.6881 11.4697 10.3303 11.4331 9.91518H12.9741C13.0253 10.2002 13.1786 10.4118 13.427 10.55C13.6826 10.6918 14.0112 10.7652 14.4202 10.7697C14.9022 10.7652 15.2747 10.6513 15.545 10.428C15.8152 10.2039 15.9466 9.8586 15.9466 9.39134V8.12253H15.8736C15.7202 8.42743 15.4937 8.6875 15.187 8.9035C14.8876 9.11436 14.4786 9.22017 13.9674 9.22017C13.4489 9.22017 12.9887 9.09602 12.5724 8.84843C12.1634 8.59643 11.8421 8.22611 11.6011 7.73828C11.3674 7.24677 11.2506 6.65097 11.2506 5.95154C11.2506 5.24844 11.3747 4.6445 11.6084 4.1405C11.8494 3.63576 12.1708 3.25594 12.587 2.99954C12.996 2.73945 13.4635 2.60941 13.982 2.60941C14.4933 2.60941 14.8949 2.72326 15.187 2.95102C15.4791 3.17877 15.7056 3.45504 15.8736 3.78051H15.9466V2.69461H17.473V9.42735C17.473 9.97616 17.3416 10.4383 17.0786 10.8123C16.823 11.1899 16.4579 11.4727 15.9904 11.6601C15.5303 11.8467 14.9971 11.94 14.391 11.94ZM12.828 5.97575C12.828 6.59804 12.9668 7.09178 13.2371 7.45765C13.5073 7.81986 13.8943 8.00056 14.391 8.00056C14.8876 8.00056 15.2747 7.82351 15.545 7.47012C15.8225 7.11232 15.9539 6.6142 15.9539 5.97575C15.9539 5.55331 15.8955 5.18521 15.7786 4.87223C15.6545 4.55485 15.4792 4.31095 15.2382 4.1405C15.0045 3.96564 14.7269 3.87822 14.391 3.87822C14.055 3.87822 13.7702 3.96931 13.5365 4.15225C13.3028 4.33151 13.1275 4.57911 13.0033 4.89649C12.8864 5.20947 12.828 5.56947 12.828 5.97575ZM20.3432 9.31789H18.7949V2.69461H20.2702V3.81723H20.3578C20.5112 3.43886 20.7522 3.14427 21.0809 2.93268C21.4168 2.71741 21.8258 2.60941 22.3078 2.60941C22.7606 2.60941 23.1623 2.70711 23.4982 2.90254C23.8415 3.09724 24.1045 3.38229 24.2871 3.75625C24.4696 4.13021 24.5646 4.57763 24.5646 5.09779V9.31789H23.0236V5.34173C23.0236 4.8943 22.9067 4.5468 22.6803 4.29848C22.4539 4.04648 22.1399 3.92302 21.7382 3.92669C21.4607 3.92302 21.2197 3.98181 21.0079 4.10377C20.8034 4.22132 20.6354 4.39617 20.5185 4.62834C20.4016 4.85609 20.3432 5.12646 20.3432 5.43944V9.31789ZM28.6691 2.69461H30.2174V9.31789H28.6691V2.69461ZM29.4578 1.75566C29.2898 1.75566 29.1438 1.71675 29.005 1.63961C28.8662 1.56246 28.7567 1.45885 28.6764 1.32881C28.5961 1.19877 28.5595 1.05624 28.5595 0.901954C28.5595 0.751342 28.5961 0.611017 28.6764 0.480976C28.7567 0.350935 28.8662 0.249563 29.005 0.176094C29.1438 0.098951 29.2898 0.0599976 29.4578 0.0599976C29.6185 0.0599976 29.7645 0.098951 29.9033 0.176094C30.0421 0.249563 30.1517 0.350935 30.232 0.480976C30.3124 0.611017 30.3488 0.751342 30.3488 0.901954C30.3488 1.05624 30.3124 1.19877 30.232 1.32881C30.1517 1.45885 30.0421 1.56246 29.9033 1.63961C29.7645 1.71675 29.6185 1.75566 29.4578 1.75566ZM33.0876 9.31789H31.5393V2.69461H33.0146V3.81723H33.1022C33.2556 3.43886 33.4966 3.14427 33.8325 2.93268C34.1612 2.71741 34.5702 2.60941 35.0522 2.60941C35.5123 2.60941 35.9067 2.70711 36.25 2.90254C36.5859 3.09724 36.8488 3.38229 37.0314 3.75625C37.214 4.13021 37.3089 4.57763 37.3089 5.09779V9.31789H35.7679V5.34173C35.7679 4.8943 35.6584 4.5468 35.432 4.29848C35.2056 4.04648 34.8842 3.92302 34.4825 3.92669C34.2123 3.92302 33.964 3.98181 33.7595 4.10377C33.5477 4.22132 33.3797 4.39617 33.2628 4.62834C33.146 4.85609 33.0876 5.12646 33.0876 5.43944V9.31789ZM40.9169 2.69461H42.4943L43.6556 7.35407H43.714L44.8898 2.69461H46.4601L47.6432 7.32981H47.7089L48.8556 2.69461H50.4331L48.5635 9.31789H46.9567L45.7151 4.82963H45.6348L44.3933 9.31789H42.7865L40.9169 2.69461ZM51.2584 2.69461H52.8067V9.31789H51.2584V2.69461ZM52.0399 1.75566C51.8792 1.75566 51.7331 1.71675 51.5944 1.63961C51.4556 1.56246 51.346 1.45885 51.2657 1.32881C51.1853 1.19877 51.1489 1.05624 51.1489 0.901954C51.1489 0.751342 51.1853 0.611017 51.2657 0.480976C51.346 0.350935 51.4556 0.249563 51.5944 0.176094C51.7331 0.098951 51.8792 0.0599976 52.0399 0.0599976C52.2079 0.0599976 52.3539 0.098951 52.4927 0.176094C52.6314 0.249563 52.741 0.350935 52.8213 0.480976C52.9016 0.611017 52.9382 0.751342 52.9382 0.901954C52.9382 1.05624 52.9016 1.19877 52.8213 1.32881C52.741 1.45885 52.6314 1.56246 52.4927 1.63961C52.3539 1.71675 52.2079 1.75566 52.0399 1.75566ZM57.4078 3.88997H56.1151V7.32981C56.1151 7.63911 56.1809 7.8441 56.3123 7.94549C56.4511 8.04761 56.6483 8.09831 56.8966 8.09831C57.0719 8.09831 57.2691 8.09022 57.4955 8.07405V9.34214C57.2472 9.38329 56.9477 9.40313 56.6045 9.40313C56.2101 9.40313 55.8595 9.33624 55.5527 9.20179C55.246 9.06808 55.005 8.8646 54.8297 8.59203C54.6544 8.31945 54.5668 7.98442 54.5741 7.58622V3.88997H53.632V2.69461H54.5741V1.10917H56.1151V2.69461H57.4078V3.88997ZM60.1393 9.31789H58.5837V0.48685H60.1027V3.81723H60.1832C60.3365 3.43078 60.5775 3.13399 60.9062 2.9268C61.2348 2.71521 61.6438 2.60941 62.1404 2.60941C62.5932 2.60941 62.9949 2.70711 63.3309 2.90254C63.6741 3.09356 63.937 3.3757 64.1269 3.74966C64.3095 4.12435 64.4044 4.57322 64.4044 5.09779V9.31789H62.8634V5.34173C62.8634 4.89063 62.7466 4.54089 62.5202 4.29256C62.2938 4.04497 61.9724 3.92302 61.5707 3.92669C61.2859 3.92302 61.0376 3.98181 60.8185 4.10377C60.6067 4.22132 60.4387 4.39617 60.3219 4.62834C60.1977 4.85609 60.1393 5.12646 60.1393 5.43944V9.31789ZM74.4466 3.30442C74.3005 2.82907 74.0523 2.45878 73.6944 2.19502C73.3438 1.92612 72.8983 1.79243 72.3797 1.79243C71.905 1.79243 71.4814 1.91438 71.109 2.1583C70.7438 2.39781 70.4516 2.75191 70.2471 3.21917C70.0426 3.68717 69.9404 4.24409 69.9404 4.89062C69.9404 5.54523 70.0426 6.10802 70.2471 6.57969C70.4516 7.04695 70.7438 7.40328 71.1163 7.6472C71.4887 7.89112 71.9197 8.01307 72.4163 8.01307C72.8472 8.01307 73.2342 7.92931 73.5556 7.76254C73.8915 7.59209 74.1472 7.35184 74.3225 7.04327C74.5051 6.73029 74.6 6.36591 74.6073 5.95154H72.5696V4.6952H76.1337V5.75607C76.1337 6.50032 75.973 7.15055 75.659 7.70819C75.3376 8.26508 74.8994 8.69413 74.3371 8.99462C73.782 9.29144 73.1393 9.43986 72.4163 9.43986C71.6056 9.43986 70.8972 9.25691 70.2837 8.89103C69.6702 8.52075 69.1955 7.99469 68.8522 7.31142C68.5163 6.62448 68.3483 5.82147 68.3483 4.90237C68.3483 3.97959 68.5235 3.17658 68.8668 2.49331C69.2173 1.80637 69.6921 1.28034 70.2983 0.914465C70.9045 0.547853 71.5983 0.364924 72.3651 0.364924C73.0005 0.364924 73.5775 0.489057 74.1106 0.737383C74.6438 0.984975 75.082 1.33322 75.418 1.77992C75.7612 2.22294 75.973 2.73136 76.0607 3.30442H74.4466ZM76.5573 9.31789L79.6466 0.48685H81.5893L84.6932 9.31789H83.0062L82.2758 7.13439H78.9674L78.2444 9.31789H76.5573ZM81.8522 5.85378L80.6544 2.29273H80.5814L79.391 5.85378H81.8522ZM89.7106 2.69461H91.2516V9.31789H89.7545V8.14679H89.6814C89.528 8.52883 89.2798 8.83372 88.9292 9.06148C88.5933 9.28923 88.1842 9.40313 87.7095 9.40313C87.2713 9.40313 86.8843 9.30541 86.5556 9.11071C86.227 8.91529 85.964 8.63097 85.7814 8.25701C85.5915 7.88305 85.5039 7.4356 85.5039 6.9147V2.69461H87.0522V6.67076C87.0522 6.94774 87.1034 7.19167 87.2056 7.40326C87.3079 7.61044 87.4539 7.77063 87.6438 7.88451C87.8337 7.99471 88.0528 8.04908 88.3011 8.04908C88.5348 8.04908 88.7612 7.99251 88.973 7.87863C89.1921 7.76108 89.3673 7.5877 89.4988 7.35994C89.6376 7.13292 89.7106 6.85815 89.7106 6.53709V2.69461ZM95.8528 3.88997H94.5528V7.32981C94.5528 7.63911 94.6185 7.8441 94.7573 7.94549C94.896 8.04761 95.086 8.09831 95.3343 8.09831C95.5096 8.09831 95.714 8.09022 95.9404 8.07405V9.34214C95.6848 9.38329 95.3927 9.40313 95.0494 9.40313C94.6478 9.40313 94.2971 9.33624 93.9904 9.20179C93.6837 9.06808 93.4426 8.8646 93.2674 8.59203C93.0994 8.31945 93.0118 7.98442 93.0191 7.58622V3.88997H92.0696V2.69461H93.0191V1.10917H94.5528V2.69461H95.8528V3.88997ZM98.5769 9.31789H97.0286V0.48685H98.5404V3.81723H98.628C98.7814 3.43078 99.0225 3.13399 99.3511 2.9268C99.6725 2.71521 100.089 2.60941 100.578 2.60941C101.038 2.60941 101.433 2.70711 101.776 2.90254C102.119 3.09356 102.382 3.3757 102.565 3.74966C102.754 4.12435 102.842 4.57322 102.842 5.09779V9.31789H101.308V5.34173C101.301 4.89063 101.184 4.54089 100.958 4.29256C100.731 4.04497 100.417 3.92302 100.008 3.92669C99.7308 3.92302 99.4825 3.98181 99.2634 4.10377C99.0516 4.22132 98.8837 4.39617 98.7595 4.62834C98.6354 4.85609 98.5769 5.12646 98.5769 5.43944V9.31789Z" fill="#7EAF72"/>
</svg>
