<svg width="12" height="14" viewBox="0 0 12 14" fill="none" xmlns="http://www.w3.org/2000/svg">
<path id="Vector" fill-rule="evenodd" clip-rule="evenodd" d="M0.303991 3.57191L5.92764 0.387756V4.29194L3.75125 5.52402L0.303991 3.57191ZM3.60513 5.76424L0.157959 3.81217V10.1878L3.60513 8.23576V5.76424ZM4.03609 7.99478V6.00522L5.78883 7L4.03609 7.99478ZM3.75125 8.47598L0.303991 10.4281L5.92764 13.6122V9.70806L3.75125 8.47598ZM5.92764 9.22538L4.17481 8.23504L5.92764 7.2439V9.22538ZM6.21248 9.70806V13.6122L11.8434 10.4259L8.39618 8.47378L6.21248 9.70806ZM7.96522 8.23208L6.21248 9.22538V7.23879L7.96522 8.23208ZM8.39618 5.52622L11.8434 3.57411L6.21248 0.387756V4.29194L8.39618 5.52622ZM5.92764 4.77462V6.7561L4.17481 5.76572L5.92764 4.77462Z" fill="#7EAF72"/>
</svg>
