<svg width="24" height="24" viewBox="0 0 24 24" fill="none" xmlns="http://www.w3.org/2000/svg">
<g id="Edit">
<path id="Rectangle 1" d="M4.97242 14.9872L5.93266 15.2273L4.97242 14.9872L4.23197 17.949C4.22917 17.9602 4.22624 17.9719 4.22323 17.9839C4.18641 18.1303 4.1354 18.3333 4.11783 18.5129C4.09762 18.7196 4.09093 19.1715 4.45971 19.5403C4.82848 19.9091 5.28044 19.9024 5.48714 19.8822C5.66675 19.8646 5.86966 19.8136 6.01615 19.7768C6.02815 19.7738 6.03978 19.7708 6.05099 19.768L9.0128 19.0276C9.03074 19.0231 9.04919 19.0185 9.0681 19.0139C9.2764 18.9625 9.54007 18.8974 9.78184 18.7605L9.28914 17.8903L9.78184 18.7605C10.0236 18.6236 10.2151 18.431 10.3663 18.2788C10.38 18.265 10.3934 18.2515 10.4065 18.2385L18.2929 10.3521L18.2929 10.3521C18.3057 10.3392 18.3186 10.3264 18.3314 10.3136C18.6313 10.0138 18.9228 9.72246 19.1308 9.44978C19.3653 9.14239 19.5858 8.74443 19.5858 8.23077C19.5858 7.7171 19.3653 7.31915 19.1308 7.01175C18.9228 6.73908 18.6313 6.44772 18.3314 6.14792C18.3186 6.13511 18.3057 6.12229 18.2929 6.10945L17.8906 5.70711C17.8777 5.69427 17.8649 5.68144 17.8521 5.66863C17.5523 5.36871 17.2609 5.07723 16.9882 4.86919C16.6809 4.63466 16.2829 4.41421 15.7692 4.41421C15.2556 4.41421 14.8576 4.63466 14.5502 4.86919C14.2775 5.07723 13.9862 5.3687 13.6864 5.66862C13.6736 5.68144 13.6608 5.69427 13.6479 5.70711L5.76153 13.5935C5.74846 13.6066 5.73498 13.62 5.72116 13.6337C5.56899 13.7849 5.37637 13.9764 5.23949 14.2182C5.1026 14.4599 5.03753 14.7236 4.98613 14.9319C4.98146 14.9508 4.97691 14.9693 4.97242 14.9872Z" stroke="#7EAF72" stroke-width="2"/>
<path id="Vector 107" d="M13.5 6.5L16.5 4.5L19.5 7.5L17.5 10.5L13.5 6.5Z" fill="#7EAF72"/>
</g>
</svg>
