<svg width="24" height="24" viewBox="0 0 24 24" fill="none" xmlns="http://www.w3.org/2000/svg">
<path d="M12 13.8C13.9882 13.8 15.6 12.1882 15.6 10.2C15.6 8.21177 13.9882 6.6 12 6.6C10.0118 6.6 8.4 8.21177 8.4 10.2C8.4 12.1882 10.0118 13.8 12 13.8ZM12 8.4C12.9941 8.4 13.8 9.20589 13.8 10.2C13.8 11.1941 12.9941 12 12 12C11.0059 12 10.2 11.1941 10.2 10.2C10.2 9.20589 11.0059 8.4 12 8.4Z" fill="#7EAF72"/>
<path d="M4.8 21C3.80589 21 3 20.1941 3 19.2V4.8C3 3.80589 3.80589 3 4.8 3H19.2C20.1941 3 21 3.80589 21 4.8V19.2C21 20.1941 20.1941 21 19.2 21H4.8ZM4.8 4.8V19.2H7.5C7.5 16.7147 9.51472 14.7 12 14.7C14.4853 14.7 16.5 16.7147 16.5 19.2H19.2V4.8H4.8ZM14.7 19.2C14.7 17.7088 13.4912 16.5 12 16.5C10.5088 16.5 9.3 17.7088 9.3 19.2H14.7Z" fill="#7EAF72"/>
</svg>
