<svg width="24" height="24" viewBox="0 0 24 24" fill="none" xmlns="http://www.w3.org/2000/svg">
<g id="Trash">
<path id="Vector 8" d="M10 15L10 11" stroke="#E53A3A" stroke-width="2" stroke-linecap="round"/>
<path id="Vector 9" d="M14 15L14 11" stroke="#E53A3A" stroke-width="2" stroke-linecap="round"/>
<path id="Rectangle 41" d="M3 6.17647H6M6 6.17647V17C6 18.8856 6 19.8284 6.58579 20.4142C7.17157 21 8.11438 21 10 21H14C15.8856 21 16.8284 21 17.4142 20.4142C18 19.8284 18 18.8856 18 17V6.17647M6 6.17647H18M18 6.17647H21M8 6.17647V4.05882C8 3.47405 8.44772 3 9 3H15C15.5523 3 16 3.47405 16 4.05882V6.17647" stroke="#E53A3A" stroke-width="2" stroke-linecap="round" stroke-linejoin="round"/>
</g>
</svg>
