<svg width="48" height="48" viewBox="0 0 48 48" fill="none" xmlns="http://www.w3.org/2000/svg">
<g id="Frame 9268">
<rect id="Rectangle 151" x="41" y="5" width="2" height="31" fill="#7EAF72"/>
<rect id="Rectangle 150" x="7" y="13" width="9" height="16" fill="#7EAF72"/>
<path id="Vector 114" d="M41.2414 35.329C32.0337 29.5109 26.4138 27.5848 16.4138 27.5848M41.2414 5.76006C32.0337 11.5782 26.4138 13.5043 16.4138 13.5043M6.75862 17.0244V12.8003C6.75862 12.4115 7.06739 12.0963 7.44828 12.0963H15.7241C16.105 12.0963 16.4138 12.4115 16.4138 12.8003V20.5445V28.2888C16.4138 28.6776 16.105 28.9928 15.7241 28.9928H15.0345M6.75862 17.0244V24.0647M6.75862 17.0244H4.68966C4.30877 17.0244 4 17.3396 4 17.7284V23.3606C4 23.7495 4.30877 24.0647 4.68966 24.0647H6.75862M6.75862 24.0647V28.2888C6.75862 28.6776 7.06739 28.9928 7.44828 28.9928H8.82759M8.82759 28.9928H15.0345M8.82759 28.9928L13.6552 43.4253C14 44.8333 17.4483 43.4253 17.1034 41.6652L15.0345 28.9928M44 5.05604V36.0331C44 37.4411 41.2414 37.4411 41.2414 36.0331V5.05604C41.2414 3.64799 44 3.64798 44 5.05604Z" stroke="#333333" stroke-width="2"/>
</g>
</svg>
