<svg width="24" height="24" viewBox="0 0 24 24" fill="none" xmlns="http://www.w3.org/2000/svg">
<g id="Property 1=default">
<path id="coolicon" d="M19.875 22H4.125C3.50368 22 3 21.5182 3 20.9239V10.6088C3 10.3234 3.11863 10.0498 3.32962 9.84803L11.2046 2.31559C11.4156 2.11353 11.702 2 12.0006 2C12.2991 2 12.5855 2.11353 12.7965 2.31559L20.6715 9.84803C20.8827 10.0496 21.001 10.3235 21 10.6088V20.9239C21 21.5182 20.4963 22 19.875 22ZM9.75 14.4676H14.25V19.8479H18.75V11.0543L12 4.59792L5.25 11.0543V19.8479H9.75V14.4676Z" fill="#B4B5B7"/>
</g>
</svg>
